HIERARCHY
ROOT Hips
{
	OFFSET -0.001795 -0.223333 0.028219
	CHANNELS 6 Xposition Yposition Zposition Zrotation Yrotation Xrotation 
	JOINT LeftUpLeg
	{
		OFFSET 0.069520 -0.091406 -0.006815
		CHANNELS 3 Zrotation Yrotation Xrotation
		JOINT LeftLeg
		{
			OFFSET 0.034277 -0.375199 -0.004496
			CHANNELS 3 Zrotation Yrotation Xrotation
			JOINT LeftFoot
			{
				OFFSET -0.013596 -0.397961 -0.043693
				CHANNELS 3 Zrotation Yrotation Xrotation
				JOINT LeftToe
				{
					OFFSET 0.026358 -0.055791 0.119288
					CHANNELS 3 Zrotation Yrotation Xrotation
					End Site
					{
						OFFSET 0.000000 0.000000 0.000000
					}
				}
			}
		}
	}
	JOINT RightUpLeg
	{
		OFFSET -0.067670 -0.090522 -0.004320
		CHANNELS 3 Zrotation Yrotation Xrotation
		JOINT RightLeg
		{
			OFFSET -0.038290 -0.382569 -0.008850
			CHANNELS 3 Zrotation Yrotation Xrotation
			JOINT RightFoot
			{
				OFFSET 0.015774 -0.398415 -0.042312
				CHANNELS 3 Zrotation Yrotation Xrotation
				JOINT RightToe
				{
					OFFSET -0.025372 -0.048144 0.123348
					CHANNELS 3 Zrotation Yrotation Xrotation
					End Site
					{
						OFFSET 0.000000 0.000000 0.000000
					}
				}
			}
		}
	}
	JOINT Spine
	{
		OFFSET -0.002533 0.108963 -0.026696
		CHANNELS 3 Zrotation Yrotation Xrotation
		JOINT Spine1
		{
			OFFSET 0.005487 0.135180 0.001092
			CHANNELS 3 Zrotation Yrotation Xrotation
			JOINT Spine2
			{
				OFFSET 0.001457 0.052922 0.025425
				CHANNELS 3 Zrotation Yrotation Xrotation
				JOINT Neck
				{
					OFFSET -0.002778 0.213870 -0.042857
					CHANNELS 3 Zrotation Yrotation Xrotation
					JOINT Head
					{
						OFFSET 0.005152 0.064970 0.051349
						CHANNELS 3 Zrotation Yrotation Xrotation
						End Site
						{
							OFFSET 0.000000 0.000000 0.000000
						}
					}
				}
				JOINT LeftShoulder
				{
					OFFSET 0.078845 0.121749 -0.034090
					CHANNELS 3 Zrotation Yrotation Xrotation
					JOINT LeftArm
					{
						OFFSET 0.090977 0.030469 -0.008868
						CHANNELS 3 Zrotation Yrotation Xrotation
						JOINT LeftForeArm
						{
							OFFSET 0.259612 -0.012772 -0.027456
							CHANNELS 3 Zrotation Yrotation Xrotation
							JOINT LeftHand
							{
								OFFSET 0.249234 0.008986 -0.001171
								CHANNELS 3 Zrotation Yrotation Xrotation
								End Site
								{
									OFFSET 0.000000 0.000000 0.000000
								}
							}
						}
					}
				}
				JOINT RightShoulder
				{
					OFFSET -0.081759 0.118833 -0.038615
					CHANNELS 3 Zrotation Yrotation Xrotation
					JOINT RightArm
					{
						OFFSET -0.096012 0.032551 -0.009143
						CHANNELS 3 Zrotation Yrotation Xrotation
						JOINT RightForeArm
						{
							OFFSET -0.253742 -0.013329 -0.021401
							CHANNELS 3 Zrotation Yrotation Xrotation
							JOINT RightHand
							{
								OFFSET -0.255298 0.007772 -0.005559
								CHANNELS 3 Zrotation Yrotation Xrotation
								End Site
								{
									OFFSET 0.000000 0.000000 0.000000
								}
							}
						}
					}
				}
			}
		}
	}
}
MOTION
Frames: 16
Frame Time: 0.050000
0.000000 0.830158 0.000000 0.995298 7.434107 3.905871 17.233617 0.486210 -29.229569 -18.510328 5.839141 37.332534 13.066858 27.154640 -7.134071 0.000000 0.000000 0.000000 -7.809371 0.380033 -36.711924 11.050117 -6.581430 50.732978 -5.518228 -11.713209 -12.248554 0.000000 0.000000 0.000000 3.752120 -3.268733 32.131996 0.420767 -0.431971 3.839463 -7.049354 -0.580606 4.159194 10.789369 -4.127178 -20.327329 0.000000 0.000000 0.000000 -16.274559 -43.912839 21.279975 -5.213280 -30.369462 -0.812690 40.253069 -23.536450 -7.703666 0.000000 0.000000 0.000000 16.456660 34.466296 18.238327 18.513139 41.728211 2.918536 -43.362935 33.181893 -10.930406 0.000000 0.000000 0.000000 
-0.001038 0.843077 0.006217 0.509840 5.947771 4.252450 17.656555 0.647307 -26.610485 -18.878530 5.825602 33.524059 13.333283 27.210440 -3.059003 0.000000 0.000000 0.000000 -6.690832 0.955404 -36.036240 11.408561 -6.118626 48.553457 -5.699906 -12.752218 -9.872236 0.000000 0.000000 0.000000 2.901241 -2.614055 29.864855 0.928447 -0.689564 4.112827 -7.404695 0.676903 3.540821 11.694417 -4.501633 -20.433119 0.000000 0.000000 0.000000 -18.581451 -42.363114 20.901381 -6.029996 -30.203483 -0.623577 39.210296 -29.047691 -9.322226 0.000000 0.000000 0.000000 19.903626 32.251398 18.379048 22.322280 42.235365 4.058245 -41.559779 38.366967 -12.148509 0.000000 0.000000 0.000000 
-0.001080 0.858810 0.012951 0.114555 6.339434 3.146723 15.838194 0.205284 -22.369351 -15.567636 4.025226 29.383381 12.324228 25.091124 -5.198253 0.000000 0.000000 0.000000 -5.988305 1.046898 -30.235536 10.711520 -5.050075 41.966539 -5.550037 -12.501480 -9.638518 0.000000 0.000000 0.000000 4.450228 -2.821774 27.646154 0.892056 -0.644834 3.563074 -8.359901 -1.166876 5.896605 11.873330 -5.012462 -19.896675 0.000000 0.000000 0.000000 -18.237120 -41.316828 20.525536 -9.799093 -29.865259 -0.073359 40.141485 -30.449403 -10.074788 0.000000 0.000000 0.000000 22.718360 32.650117 18.952740 24.410438 38.269670 3.849513 -38.864172 46.094757 -14.128360 0.000000 0.000000 0.000000 
-0.000696 0.876983 0.019481 -0.340185 5.642363 2.929343 15.443279 0.101503 -18.043149 -14.571694 3.321950 23.769790 12.370045 24.914307 -2.738692 0.000000 0.000000 0.000000 -4.302503 1.425695 -26.760768 9.323666 -3.656275 36.536265 -5.298083 -12.231398 -7.042707 0.000000 0.000000 0.000000 4.957007 -2.602032 25.064138 0.928972 -0.652229 3.527175 -8.498828 -1.453724 6.756027 12.266570 -4.896392 -21.982375 0.000000 0.000000 0.000000 -18.402301 -38.908802 19.256526 -13.286339 -29.127381 0.411588 40.965377 -35.282475 -12.060569 0.000000 0.000000 0.000000 20.614325 31.030342 17.067232 31.752465 39.042720 6.083968 -35.864744 50.581966 -14.288621 0.000000 0.000000 0.000000 
0.000389 0.893197 0.025828 -0.300454 5.650719 2.901981 13.637109 -0.144123 -14.970558 -11.816009 2.228929 19.042559 11.827535 23.653251 -0.086220 0.000000 0.000000 0.000000 -3.721944 1.379050 -22.712752 7.682184 -2.412068 29.857320 -4.416965 -10.315082 -4.273800 0.000000 0.000000 0.000000 5.499592 -2.477047 22.915917 0.656475 -0.421394 1.903173 -8.498846 -2.005691 8.783802 12.544958 -4.970732 -23.158590 0.000000 0.000000 0.000000 -18.872496 -37.611193 18.801139 -17.174780 -28.276795 0.824664 41.561735 -40.141785 -14.060186 0.000000 0.000000 0.000000 20.403665 29.391975 15.827469 36.927623 37.073873 6.825796 -32.990014 55.155741 -14.308041 0.000000 0.000000 0.000000 
0.002194 0.908504 0.031882 -0.236706 5.402470 3.738895 12.580069 -0.270683 -12.110134 -10.173819 1.602524 13.647248 11.474982 22.921489 3.650949 0.000000 0.000000 0.000000 -3.288134 1.339320 -19.993876 6.848200 -1.706775 23.678505 -3.993130 -9.585345 -2.484895 0.000000 0.000000 0.000000 5.964148 -2.246916 20.065251 0.582882 -0.374582 1.736048 -8.454310 -1.949419 9.018733 12.419309 -4.829576 -23.505094 0.000000 0.000000 0.000000 -19.630694 -35.810602 17.989382 -22.673309 -26.441553 1.312750 39.659281 -47.070434 -15.815935 0.000000 0.000000 0.000000 20.646877 27.611014 14.850536 41.165566 34.400603 6.961822 -25.637296 60.069849 -11.534576 0.000000 0.000000 0.000000 
0.004913 0.920874 0.037403 -0.190600 5.060296 4.217572 11.357536 -0.348239 -10.140235 -8.587675 1.152427 9.440626 11.151316 22.345754 7.092017 0.000000 0.000000 0.000000 -3.392343 1.189401 -17.220058 6.516148 -1.314590 17.928469 -3.876505 -9.876008 0.338901 0.000000 0.000000 0.000000 6.432772 -1.969574 16.953513 0.020969 -0.070959 1.172321 -8.232671 -2.046915 9.607017 12.529094 -4.949866 -23.490149 0.000000 0.000000 0.000000 -21.312198 -33.396184 17.100550 -27.011886 -24.058303 1.340369 34.916208 -54.802554 -16.129262 0.000000 0.000000 0.000000 22.615832 25.359152 13.869540 43.580173 32.029336 6.576157 -15.165293 63.071610 -5.897610 0.000000 0.000000 0.000000 
0.007897 0.928439 0.041868 -0.025192 4.838511 5.074499 10.198253 -0.409244 -9.146492 -7.394365 0.880975 6.542983 10.529547 21.366170 8.573937 0.000000 0.000000 0.000000 -3.629670 1.049559 -14.977636 6.311630 -1.060295 12.735554 -3.829837 -10.065477 1.836619 0.000000 0.000000 0.000000 6.385720 -1.627748 13.917216 -0.287045 0.072194 1.286728 -7.556791 -1.751661 9.426100 12.250385 -4.992177 -22.415982 0.000000 0.000000 0.000000 -23.084202 -31.780777 16.540474 -30.152904 -21.058343 1.004767 26.829759 -61.328174 -13.471460 0.000000 0.000000 0.000000 23.349422 23.898572 13.167737 45.448355 29.676039 6.044455 -5.857076 64.948478 -0.249659 0.000000 0.000000 0.000000 
0.010688 0.931396 0.045430 0.057590 4.717969 5.289198 9.583434 -0.417722 -7.746155 -6.896791 0.757563 4.153594 10.586700 21.439845 9.148586 0.000000 0.000000 0.000000 -3.373712 1.002400 -13.648822 5.478996 -0.794305 9.831386 -3.928349 -10.530907 3.126109 0.000000 0.000000 0.000000 6.571137 -1.410126 11.702095 -0.586304 0.204871 1.611954 -7.246069 -1.555381 9.334191 12.002591 -4.960620 -21.801465 0.000000 0.000000 0.000000 -24.317713 -30.198827 15.779311 -32.461440 -18.299280 0.524761 16.989097 -66.255204 -8.351038 0.000000 0.000000 0.000000 23.863464 22.487143 12.420522 46.045317 28.038633 5.492591 1.805120 65.202852 4.589874 0.000000 0.000000 0.000000 
0.012855 0.932584 0.048248 0.161209 4.651133 5.217501 8.950911 -0.410247 -6.453421 -6.314748 0.651777 2.383942 10.287682 20.970533 9.760352 0.000000 0.000000 0.000000 -3.119313 0.919245 -11.940868 4.777275 -0.611322 7.102253 -3.710471 -10.174736 3.921709 0.000000 0.000000 0.000000 6.422733 -1.180985 9.807787 -0.760323 0.282143 1.822697 -6.916024 -1.174981 9.247873 12.073713 -5.064808 -21.335674 0.000000 0.000000 0.000000 -24.405790 -28.789465 14.755312 -34.787367 -16.066180 0.081045 5.888886 -69.499740 -1.249072 0.000000 0.000000 0.000000 24.723696 21.438850 12.028566 47.088164 26.875825 5.168950 6.946558 64.083337 7.733232 0.000000 0.000000 0.000000 
0.014511 0.933236 0.050467 0.046009 4.717739 4.807065 8.700070 -0.382939 -5.046112 -6.246917 0.620726 1.128608 10.438952 21.175317 9.645992 0.000000 0.000000 0.000000 -2.635922 0.848496 -10.401488 4.207632 -0.498568 5.172866 -3.603901 -10.062097 4.653435 0.000000 0.000000 0.000000 6.559409 -1.022177 8.263686 -1.133543 0.457383 2.070895 -6.571011 -0.736030 9.398856 11.980604 -4.999769 -21.228092 0.000000 0.000000 0.000000 -25.232870 -28.084069 14.290353 -35.585991 -13.984038 -0.419030 -2.029582 -70.415846 4.206304 0.000000 0.000000 0.000000 25.099865 20.903673 11.905516 47.457489 25.966089 4.800937 9.483078 62.873842 9.153934 0.000000 0.000000 0.000000 
0.016025 0.933682 0.051985 -0.038525 4.664353 4.293091 8.519570 -0.350809 -3.836459 -6.145286 0.589515 -0.108848 10.392721 21.093569 10.011590 0.000000 0.000000 0.000000 -2.370267 0.752203 -8.870222 3.906879 -0.447325 3.611049 -3.419952 -9.709053 4.939772 0.000000 0.000000 0.000000 6.651436 -0.864820 6.817094 -1.440814 0.600207 2.446855 -6.328195 -0.198873 9.385427 11.958442 -4.946837 -21.183519 0.000000 0.000000 0.000000 -25.240905 -27.659622 13.797039 -36.849270 -12.350127 -0.811238 -7.991520 -71.014262 8.380821 0.000000 0.000000 0.000000 25.356818 20.296745 11.739967 47.805023 25.432929 4.580567 11.128693 61.554603 9.970647 0.000000 0.000000 0.000000 
0.017614 0.934170 0.052700 -0.013679 5.067059 3.900741 8.237213 -0.333334 -3.009771 -6.112710 0.567306 -0.831913 10.330610 20.994455 10.104250 0.000000 0.000000 0.000000 -2.287826 0.662225 -7.673606 3.656241 -0.417416 2.486140 -3.503495 -9.942527 5.321895 0.000000 0.000000 0.000000 6.474321 -0.728806 5.726987 -1.553756 0.657304 2.324670 -5.950536 -0.137699 9.570143 11.959153 -4.892578 -21.395966 0.000000 0.000000 0.000000 -25.626642 -26.885454 13.265044 -37.388748 -11.664971 -0.995161 -12.845747 -71.409743 11.895270 0.000000 0.000000 0.000000 25.808882 20.195201 11.841607 48.110189 25.169797 4.471903 12.513625 61.093248 10.735713 0.000000 0.000000 0.000000 
0.019451 0.934703 0.052616 -0.112260 5.376054 3.429362 7.879451 -0.303611 -1.968539 -5.897516 0.525496 -1.937022 10.266598 20.900230 10.543422 0.000000 0.000000 0.000000 -2.079628 0.578598 -6.523640 3.231702 -0.370289 1.169569 -3.514898 -9.996046 5.576257 0.000000 0.000000 0.000000 6.442314 -0.567724 4.268379 -1.590918 0.672760 2.385963 -5.838727 0.158821 9.795191 11.863890 -4.803992 -21.374968 0.000000 0.000000 0.000000 -25.306160 -26.369921 12.683166 -38.555561 -11.120123 -1.141471 -17.401331 -71.334042 15.067445 0.000000 0.000000 0.000000 25.761380 19.787097 11.747942 49.151456 25.107022 4.539349 14.406805 60.630688 11.870574 0.000000 0.000000 0.000000 
0.021243 0.934739 0.051927 -0.126586 5.754495 3.142515 7.586883 -0.288843 -1.532866 -5.930179 0.511016 -2.550647 10.297687 20.948108 10.642396 0.000000 0.000000 0.000000 -2.211765 0.505899 -5.691191 3.086216 -0.361424 0.432607 -3.619169 -10.251177 5.872612 0.000000 0.000000 0.000000 6.303258 -0.507897 3.810725 -1.663992 0.712031 2.212802 -5.705106 0.569731 9.858787 11.909642 -4.765503 -21.367506 0.000000 0.000000 0.000000 -25.164475 -26.466584 12.474360 -39.344424 -11.327703 -1.027658 -17.737735 -71.354559 15.166444 0.000000 0.000000 0.000000 25.388303 19.778962 11.909404 49.840234 25.662338 4.833741 14.495842 60.872433 12.144446 0.000000 0.000000 0.000000 
0.022855 0.934769 0.050833 -0.226010 6.031450 2.635656 7.329826 -0.266834 -1.061855 -5.923935 0.498537 -2.992533 10.402626 21.103474 10.779242 0.000000 0.000000 0.000000 -2.064962 0.426122 -4.676227 3.034882 -0.363170 -0.100902 -3.924665 -10.915764 5.939469 0.000000 0.000000 0.000000 6.370952 -0.456608 3.362084 -1.784209 0.779974 1.941253 -5.583151 0.984523 10.154992 11.881659 -4.669112 -21.517501 0.000000 0.000000 0.000000 -24.666006 -26.467455 12.177879 -40.265168 -11.694045 -0.897107 -18.878070 -72.001988 16.036207 0.000000 0.000000 0.000000 25.093263 19.611269 11.965034 50.870054 26.020243 5.088802 14.120418 61.749228 12.339572 0.000000 0.000000 0.000000 
